HIERARCHY
ROOT hip
{
  OFFSET 0 0 0
  CHANNELS 6 Xposition Yposition Zposition Zrotation Yrotation Xrotation
  JOINT abdomen
  {
    OFFSET 0 20.6881 -0.73152
    CHANNELS 3 Zrotation Xrotation Yrotation
    JOINT chest
    {
      OFFSET 0 11.7043 -0.48768
      CHANNELS 3 Zrotation Xrotation Yrotation
      JOINT neck
      {
        OFFSET 0 22.1894 -2.19456
        CHANNELS 3 Zrotation Xrotation Yrotation
        JOINT head
        {
          OFFSET -0.24384 7.07133 1.2192
          CHANNELS 3 Zrotation Xrotation Yrotation
          JOINT leftEye
          {
            OFFSET 4.14528 8.04674 8.04672
            CHANNELS 3 Zrotation Xrotation Yrotation
            End Site
            {
              OFFSET 1 0 0
            }
          }
          JOINT rightEye
          {
            OFFSET -3.6576 8.04674 8.04672
            CHANNELS 3 Zrotation Xrotation Yrotation
            End Site
            {
              OFFSET 1 0 0
            }
          }
        }
      }
      JOINT rCollar
      {
        OFFSET -2.68224 19.2634 -4.8768
        CHANNELS 3 Zrotation Xrotation Yrotation
        JOINT rShldr
        {
          OFFSET -8.77824 -1.95073 1.46304
          CHANNELS 3 Zrotation Xrotation Yrotation
          JOINT rForeArm
          {
            OFFSET -28.1742 -1.7115 0.48768
            CHANNELS 3 Zrotation Xrotation Yrotation
            JOINT rHand
            {
              OFFSET -22.5879 0.773209 7.07136
              CHANNELS 3 Zrotation Xrotation Yrotation
              JOINT rThumb1
              {
                OFFSET -1.2192 -0.487915 3.41376
                CHANNELS 3 Zrotation Xrotation Yrotation
                JOINT rThumb2
                {
                  OFFSET -3.37035 -0.52449 3.41376
                  CHANNELS 3 Zrotation Xrotation Yrotation
                  End Site
                  {
                    OFFSET -1.78271 -1.18214 1.43049
                  }
                }
              }
              JOINT rIndex1
              {
                OFFSET -7.75947 0.938293 5.60832
                CHANNELS 3 Zrotation Xrotation Yrotation
                JOINT rIndex2
                {
                  OFFSET -2.54057 -0.884171 1.56538
                  CHANNELS 3 Zrotation Xrotation Yrotation
                  End Site
                  {
                    OFFSET -1.62519 -0.234802 1.16502
                  }
                }
              }
              JOINT rMid1
              {
                OFFSET -8.24714 1.18213 3.41376
                CHANNELS 3 Zrotation Xrotation Yrotation
                JOINT rMid2
                {
                  OFFSET -3.10165 -0.590103 1.0647
                  CHANNELS 3 Zrotation Xrotation Yrotation
                  End Site
                  {
                    OFFSET -2.48547 -0.328903 0.83742
                  }
                }
              }
              JOINT rRing1
              {
                OFFSET -8.82822 0.546677 1.51678
                CHANNELS 3 Zrotation Xrotation Yrotation
                JOINT rRing2
                {
                  OFFSET -2.60934 -0.819778 -0.0198488
                  CHANNELS 3 Zrotation Xrotation Yrotation
                  End Site
                  {
                    OFFSET -2.33842 -0.294052 0.168128
                  }
                }
              }
              JOINT rPinky1
              {
                OFFSET -8.27202 -0.0477905 -0.4584
                CHANNELS 3 Zrotation Xrotation Yrotation
                JOINT rPinky2
                {
                  OFFSET -1.82734 -0.647385 -0.700984
                  CHANNELS 3 Zrotation Xrotation Yrotation
                  End Site
                  {
                    OFFSET -1.69225 -0.51767 -0.607171
                  }
                }
              }
            }
          }
        }
      }
      JOINT lCollar
      {
        OFFSET 2.68224 19.2634 -4.8768
        CHANNELS 3 Zrotation Xrotation Yrotation
        JOINT lShldr
        {
          OFFSET 8.77824 -1.95073 1.46304
          CHANNELS 3 Zrotation Xrotation Yrotation
          JOINT lForeArm
          {
            OFFSET 28.1742 -1.7115 0.48768
            CHANNELS 3 Zrotation Xrotation Yrotation
            JOINT lHand
            {
              OFFSET 22.5879 0.773209 7.07136
              CHANNELS 3 Zrotation Xrotation Yrotation
              JOINT lThumb1
              {
                OFFSET 1.2192 -0.487915 3.41376
                CHANNELS 3 Zrotation Xrotation Yrotation
                JOINT lThumb2
                {
                  OFFSET 3.37035 -0.52449 3.41376
                  CHANNELS 3 Zrotation Xrotation Yrotation
                  End Site
                  {
                    OFFSET 1.78271 -1.18214 1.43049
                  }
                }
              }
              JOINT lIndex1
              {
                OFFSET 7.75947 0.938293 5.60832
                CHANNELS 3 Zrotation Xrotation Yrotation
                JOINT lIndex2
                {
                  OFFSET 2.54057 -0.884171 1.56538
                  CHANNELS 3 Zrotation Xrotation Yrotation
                  End Site
                  {
                    OFFSET 1.62519 -0.234802 1.16502
                  }
                }
              }
              JOINT lMid1
              {
                OFFSET 8.24714 1.18213 3.41376
                CHANNELS 3 Zrotation Xrotation Yrotation
                JOINT lMid2
                {
                  OFFSET 3.10165 -0.590103 1.0647
                  CHANNELS 3 Zrotation Xrotation Yrotation
                  End Site
                  {
                    OFFSET 2.48547 -0.328903 0.83742
                  }
                }
              }
              JOINT lRing1
              {
                OFFSET 8.82822 0.546677 1.51678
                CHANNELS 3 Zrotation Xrotation Yrotation
                JOINT lRing2
                {
                  OFFSET 2.60934 -0.819778 -0.0198488
                  CHANNELS 3 Zrotation Xrotation Yrotation
                  End Site
                  {
                    OFFSET 2.33842 -0.294052 0.168128
                  }
                }
              }
              JOINT lPinky1
              {
                OFFSET 8.27202 -0.0477905 -0.4584
                CHANNELS 3 Zrotation Xrotation Yrotation
                JOINT lPinky2
                {
                  OFFSET 1.82734 -0.647385 -0.700984
                  CHANNELS 3 Zrotation Xrotation Yrotation
                  End Site
                  {
                    OFFSET 1.69225 -0.51767 -0.607171
                  }
                }
              }
            }
          }
        }
      }
    }
  }
  JOINT rButtock
  {
    OFFSET -8.77824 4.35084 1.2192
    CHANNELS 3 Zrotation Xrotation Yrotation
    JOINT rThigh
    {
      OFFSET 0 -1.70687 -2.19456
      CHANNELS 3 Zrotation Xrotation Yrotation
      JOINT rShin
      {
        OFFSET 0 -36.8199 0.73152
        CHANNELS 3 Zrotation Xrotation Yrotation
        JOINT rFoot
        {
          OFFSET 0.73152 -45.1104 -5.12064
          CHANNELS 3 Zrotation Xrotation Yrotation
          End Site
          {
            OFFSET -1.1221 -3.69964 12.103
          }
        }
      }
    }
  }
  JOINT lButtock
  {
    OFFSET 8.77824 4.35084 1.2192
    CHANNELS 3 Zrotation Xrotation Yrotation
    JOINT lThigh
    {
      OFFSET 0 -1.70687 -2.19456
      CHANNELS 3 Zrotation Xrotation Yrotation
      JOINT lShin
      {
        OFFSET 0 -36.8199 0.73152
        CHANNELS 3 Zrotation Xrotation Yrotation
        JOINT lFoot
        {
          OFFSET -0.73152 -45.1104 -5.12064
          CHANNELS 3 Zrotation Xrotation Yrotation
          End Site
          {
            OFFSET 1.1221 -3.69964 12.103
          }
        }
      }
    }
  }
}
MOTION
Frames:	6
Frame Time:	0.00833333
0.0 0.0 0.0 0.0 0.0 0.0 0.0 0.0 0.0 0.0 0.0 0.0 0.0 0.0 0.0 0.0 0.0 0.0 0.0 0.0 0.0 0.0 0.0 0.0 0.0 0.0 0.0 0.0 0.0 0.0 0.0 0.0 0.0 0.0 0.0 0.0 0.0 0.0 0.0 0.0 0.0 0.0 0.0 0.0 0.0 0.0 0.0 0.0 0.0 0.0 0.0 0.0 0.0 0.0 0.0 0.0 0.0 0.0 0.0 0.0 0.0 0.0 0.0 0.0 0.0 0.0 0.0 0.0 0.0 0.0 0.0 0.0 0.0 0.0 0.0 0.0 0.0 0.0 0.0 0.0 0.0 0.0 0.0 0.0 0.0 0.0 0.0 0.0 0.0 0.0 0.0 0.0 0.0 0.0 0.0 0.0 0.0 0.0 0.0 0.0 0.0 0.0 0.0 0.0 0.0 0.0 0.0 0.0 0.0 0.0 0.0 0.0 0.0 0.0 0.0 0.0 0.0 0.0 0.0 0.0 0.0 0.0 0.0 0.0 0.0 0.0 0.0 0.0 0.0 0.0 0.0 0.0
0.0273 56.071099999999994 0.3862 -15.904893 -8.960899 6.50159 17.846139 2.552539 -82.43664 3.049363 -3.431069 92.882995 11.524343 23.104464 103.689898 -30.709301 15.188406 -94.333371 0.003765 0.0 0.001247 -0.002603 0.0 -0.003694 0.944517 -6.086183 -1.301088 60.756345 14.083742 -18.94856 -3.80371 4.325653 103.38338 -6.148907 24.046141 1.090058 -170.399636 -8.082061 89.947044 -31.870271 -29.481033 4.949182 35.696033 -56.527317 -1.442268 -138.989804 13.386312 109.743252 -4.555081 12.231664 2.845586 1.725273 4.519255 0.63609 -1.349615 -20.223733 -6.679231 12.941886 -36.253167 -4.771328 -10.039538 -20.653101 -9.506057 -12.368433 -29.765089 -13.966109 -4.079037 -56.225538 11.29777 -79.013988 31.834873 31.694709 178.235498 0.47272 -45.479427 176.235557 -2.286958 -142.747732 -10.345659 -10.333224 0.664572 115.385255 4.955795 -103.922286 90.83885 40.924863 -76.343041 -19.62507 -23.099166 5.667545 29.785071 47.804043 -24.043916 170.459435 -27.152231 -144.192444 145.095535 -1.72622 178.586625 -11.937161 25.802628 6.056074 -4.798135 14.015255 -4.334479 -6.76043 14.013853 -3.680064 -0.004024 -0.000451 -0.002496 -0.436989 1.62085 -178.750993 -26.066141 -49.630385 -105.546168 -94.581677 -25.357039 -158.234256 0.000619 0.000609 0.001522 74.619612 -60.842385 173.268926 79.051014 -22.283438 -30.601314 -5.958531 -1.230494 -66.693349
0.0195 55.8658 0.5614 -15.871911 -9.063618 6.437961 13.147946 1.962129 96.732518 -3.007943 -1.412038 -86.363855 -7.99112 28.494283 -114.777534 31.538427 25.633532 115.58873 0.001709 -0.0 -0.000399 0.001398 -0.0 -0.000958 -154.663037 1.642723 160.706888 116.241046 -39.282714 142.51331 143.917607 50.748882 71.20137 174.218662 -0.822475 146.129208 -5.523815 5.351023 1.099735 -120.303215 -13.59657 107.330051 6.557001 -11.322277 -3.236675 10.349358 3.723988 -0.20808 -139.906288 37.126041 128.135477 -154.603612 18.17868 138.902167 -145.122839 1.386296 -179.563208 12.028008 42.821717 -4.10087 -143.318297 6.438433 -140.160944 1.61999 -1.980391 -2.611555 159.017806 -39.497942 -168.681788 -39.877905 50.336447 74.48323 -142.846656 -43.355087 -10.653496 166.277585 25.065574 -137.525268 172.105428 -9.786738 -89.944243 7.095451 -50.238308 -5.55339 -5.744653 -9.856079 2.892488 -110.968684 -62.109084 -54.384239 13.446521 29.973376 -9.646983 -6.619304 -10.006897 1.037649 0.002645 3.017139 -0.947855 156.82003 -35.734726 -176.082282 -0.743006 1.977306 -0.684952 -30.461996 77.322629 -4.821054 179.974438 75.750765 0.018517 177.429863 79.749895 -3.373598 17.363071 51.422346 94.620353 -102.125562 -18.481371 -161.209145 0.004387 0.000522 0.005482 76.500279 -58.686537 -31.277235 -76.466799 -13.24398 53.163193 -53.345238 -46.002929 30.999141
0.0315 55.6906 0.7145999999999999 -15.964272 -9.181639 6.425888 13.457973 3.137647 67.259116 -3.050321 -3.008325 -56.957898 -2.987681 13.074136 -8.583401 10.226183 -21.344245 17.022557 0.001546 0.0 0.005273 0.001546 0.0 0.005273 -33.99704 60.40438 36.492668 78.329265 -22.312683 40.973637 -176.872665 2.72536 42.460778 164.687434 -27.318995 142.030763 -157.339287 4.826982 88.299955 30.254805 -56.925933 28.498916 177.119613 -61.174226 115.019152 -20.55544 44.774337 13.714307 -176.642525 -52.11586 143.751207 151.251051 -72.348445 118.913971 0.004479 0.871465 0.272709 7.73006 24.225555 3.579555 -142.871996 5.149441 -139.756659 1.085547 -3.318912 -3.049091 0.505283 2.926603 -0.664633 -82.827832 -21.384939 -24.142828 -150.615363 -5.758504 -34.992559 163.718403 30.412474 -135.712149 69.330994 38.055559 -36.256303 130.926372 -24.364926 -84.613884 132.954491 12.632023 -111.205098 71.010332 56.545269 -51.416129 8.413935 20.871599 -5.643335 164.870622 -9.948716 -143.8067 145.119544 0.186648 179.186838 154.336264 -11.094327 177.719339 -20.143048 69.130036 -13.061844 -21.164395 62.114208 -7.992904 3.7e-05 -0.000464 5.7e-05 -1.392839 3.841108 40.343476 52.755808 27.272849 80.640099 131.389391 -0.211459 171.442919 3.7e-05 -0.000464 5.7e-05 77.63317 -60.280188 -127.949018 70.148166 -77.950913 -8.262643 -73.472068 83.05672 -15.789166
0.0399 55.5358 0.8512000000000001 -15.964467 -9.292042 6.421689 13.42882 1.963488 95.44099 -2.945843 -1.500152 -85.180227 -9.74833 20.056534 -62.619965 32.27052 -1.452421 70.748652 -0.003015 0.0 -0.001828 0.003338 0.0 0.003132 -153.23275 9.157544 158.892907 159.320254 18.778395 138.530978 -23.790082 20.057258 115.203805 0.190766 4.211178 0.718551 -175.432008 -13.074679 89.791298 -152.187614 5.348292 80.418207 -80.852456 42.718614 67.402759 137.78825 -61.960424 83.242519 -150.423179 20.090141 136.752246 -6.172169 23.71297 5.578294 -0.008031 -0.691755 -0.217964 -156.004084 -12.578775 173.348592 2.658868 7.384136 2.428374 -150.668932 22.750372 -146.05834 13.287164 41.696313 -15.086366 24.310285 26.584223 -87.343655 9.777488 68.604118 120.60507 178.171818 -8.36985 -143.260641 165.036036 -2.709025 -89.622911 -6.657033 -53.713209 -14.528527 160.196286 -33.329846 -122.70394 166.086794 -28.331839 -118.746098 -2.512739 -7.585757 1.27318 166.528376 -14.783943 -144.121429 0.04106 -2.642183 0.831673 38.915601 -86.233773 60.53868 137.234527 -8.93161 134.521625 1.0779 -8.877102 4.979721 179.975899 75.749437 0.019337 176.231324 77.623993 -179.9291 0.828003 -55.046479 90.434698 15.175664 -26.464325 56.921648 0.088806 -0.00039 0.070957 76.773189 -58.470522 -13.698596 -81.270327 13.504012 156.822277 -150.708675 2.542873 62.292559
0.0494 55.3816 0.9807 -15.974177 -9.402528 6.438807 18.149921 2.916572 -72.344796 2.683776 -3.891159 82.527974 7.053541 14.668411 47.962619 -20.899889 -13.084953 -43.920038 0.000583 -0.0 -0.002203 0.000583 -0.0 -0.002203 -158.86537 -36.319493 168.078897 -45.310545 -12.660154 -3.15244 2.58835 -8.403342 -135.71052 164.315032 -28.48383 141.701557 -165.575407 -3.249561 89.678065 7.859608 -54.550902 14.795329 -0.789563 1.269924 0.451479 -17.060861 31.78461 12.864404 16.869081 -49.39488 -2.151377 -43.140144 58.798213 36.971607 0.002789 0.306063 0.095273 -156.585997 -29.960312 175.361779 -16.424585 -29.380199 -15.688614 -5.208946 -18.813766 -7.491285 158.782005 -59.410751 -173.275246 -100.880451 40.928193 101.646084 -157.071243 0.662992 -41.363744 166.905597 23.815497 -137.938588 -9.235996 -9.228154 0.684207 -18.968057 -42.96048 21.769343 -36.607949 -57.372062 0.968581 30.690365 45.673194 -24.900358 133.845895 43.589052 -122.771326 10.340821 31.601398 -8.593853 -0.004442 0.308145 -0.095955 156.059505 -11.911941 -173.270136 78.858662 -51.441526 77.300259 157.529594 48.893729 148.306229 -0.042206 -0.000342 -0.032359 -1.053196 4.174484 9.435567 14.932582 48.27899 -82.78335 84.517533 2.831094 17.475341 -179.999803 75.751056 -0.000195 -151.396295 -5.687441 89.273243 77.154687 -2.992735 -90.511602 34.790783 -3.945833 -11.851374
